<?xml version="1.0" encoding="UTF-8"?>
<svg xmlns="http://www.w3.org/2000/svg" xmlns:xlink="http://www.w3.org/1999/xlink" width="64pt" height="64pt" viewBox="0 0 64 64" version="1.1">
<g id="surface3392875">
<path style=" stroke:none;fill-rule:nonzero;fill:rgb(98.039216%,93.72549%,87.058824%);fill-opacity:1;" d="M 55 33 L 31 13 L 7 33 L 7 57 L 55 57 Z M 55 33 "/>
<path style=" stroke:none;fill-rule:nonzero;fill:rgb(93.72549%,84.705882%,74.509804%);fill-opacity:1;" d="M 31 13 L 7 33 L 7 34.699219 C 7 35.800781 7.898438 36.699219 9 36.699219 C 9.5 36.699219 9.898438 36.5 10.300781 36.199219 L 30.398438 19.5 C 30.800781 19.199219 31.300781 19.199219 31.699219 19.5 L 51.800781 36.199219 C 52.601562 36.898438 53.898438 36.800781 54.601562 35.898438 C 54.898438 35.5 55.101562 35.101562 55.101562 34.601562 L 55.101562 33 Z M 31 13 "/>
<path style=" stroke:none;fill-rule:nonzero;fill:rgb(94.509804%,76.862745%,5.882353%);fill-opacity:1;" d="M 7 47 L 55 47 L 55 57 L 7 57 Z M 7 47 "/>
<path style=" stroke:none;fill-rule:nonzero;fill:rgb(80.392157%,63.137255%,65.490196%);fill-opacity:1;" d="M 31.601562 13.5 L 57.300781 34.601562 C 57.699219 34.898438 58.398438 34.898438 58.699219 34.5 C 58.800781 34.300781 58.898438 34.101562 58.898438 33.898438 L 58.898438 31 C 58.898438 30.398438 58.601562 29.800781 58.199219 29.5 L 32.300781 8 C 31.601562 7.398438 30.5 7.398438 29.800781 8 L 3.800781 29.398438 C 3.300781 29.800781 3 30.300781 3 31 L 3 33.898438 C 3 34.5 3.5 34.898438 4 34.898438 C 4.199219 34.898438 4.398438 34.800781 4.601562 34.699219 L 30.300781 13.601562 C 30.699219 13.199219 31.300781 13.199219 31.601562 13.5 Z M 31.601562 13.5 "/>
<path style=" stroke:none;fill-rule:nonzero;fill:rgb(55.294118%,42.352941%,62.352941%);fill-opacity:1;" d="M 16 50 C 15.398438 50 15 50.398438 15 51 L 15 53 C 15 53.601562 15.398438 54 16 54 C 16.601562 54 17 53.601562 17 53 L 17 51 C 17 50.398438 16.601562 50 16 50 Z M 11 50 C 10.398438 50 10 50.398438 10 51 L 10 53 C 10 53.601562 10.398438 54 11 54 C 11.601562 54 12 53.601562 12 53 L 12 51 C 12 50.398438 11.601562 50 11 50 Z M 46 50 C 45.398438 50 45 50.398438 45 51 L 45 53 C 45 53.601562 45.398438 54 46 54 C 46.601562 54 47 53.601562 47 53 L 47 51 C 47 50.398438 46.601562 50 46 50 Z M 51 50 C 50.398438 50 50 50.398438 50 51 L 50 53 C 50 53.601562 50.398438 54 51 54 C 51.601562 54 52 53.601562 52 53 L 52 51 C 52 50.398438 51.601562 50 51 50 Z M 51 50 "/>
<path style=" stroke:none;fill-rule:nonzero;fill:rgb(94.509804%,76.862745%,5.882353%);fill-opacity:1;" d="M 31 20 C 28.789062 20 27 21.789062 27 24 C 27 26.210938 28.789062 28 31 28 C 33.210938 28 35 26.210938 35 24 C 35 21.789062 33.210938 20 31 20 Z M 31 20 "/>
<path style=" stroke:none;fill-rule:nonzero;fill:rgb(55.294118%,42.352941%,62.352941%);fill-opacity:1;" d="M 31 19 C 28.199219 19 26 21.199219 26 24 C 26 26.800781 28.199219 29 31 29 C 33.800781 29 36 26.800781 36 24 C 36 21.199219 33.800781 19 31 19 Z M 31 27.199219 C 29.199219 27.199219 27.800781 25.800781 27.800781 24 C 27.800781 22.199219 29.199219 20.800781 31 20.800781 C 32.800781 20.800781 34.199219 22.199219 34.199219 24 C 34.199219 25.800781 32.800781 27.199219 31 27.199219 Z M 31 27.199219 "/>
<path style=" stroke:none;fill-rule:nonzero;fill:rgb(92.941176%,47.058824%,60%);fill-opacity:1;" d="M 25 37 L 37 37 L 37 57 L 25 57 Z M 25 37 "/>
<path style=" stroke:none;fill-rule:nonzero;fill:rgb(55.294118%,42.352941%,62.352941%);fill-opacity:1;" d="M 33 45 C 32.398438 45 32 45.398438 32 46 L 32 48 C 32 48.601562 32.398438 49 33 49 C 33.601562 49 34 48.601562 34 48 L 34 46 C 34 45.398438 33.601562 45 33 45 Z M 33 45 "/>
<path style=" stroke:none;fill-rule:nonzero;fill:rgb(55.294118%,42.352941%,62.352941%);fill-opacity:1;" d="M 56.699219 35.398438 C 57.601562 36.101562 58.800781 36 59.5 35.101562 C 59.800781 34.699219 60 34.300781 60 33.800781 L 60 31 C 60 30.101562 59.601562 29.199219 58.898438 28.699219 L 32.898438 7.300781 C 31.800781 6.398438 30.199219 6.398438 29.101562 7.300781 L 18 16.398438 L 18 13.101562 C 18 12.5 17.601562 12.101562 17 12.101562 C 16.398438 12.101562 16 12.5 16 13.101562 L 16 18.101562 L 14 19.699219 L 14 9.101562 C 14 8.5 13.601562 8.101562 13 8.101562 C 12.398438 8.101562 12 8.5 12 9.101562 L 12 21.101562 C 12 21.199219 12 21.199219 12 21.300781 L 3.101562 28.699219 C 2.398438 29.199219 2 30.101562 2 31 L 2 33.898438 C 2 34.699219 2.398438 35.398438 3.199219 35.699219 C 3.898438 36 4.699219 35.898438 5.300781 35.398438 L 6 34.800781 L 6 56 L 3 56 C 2.398438 56 2 56.398438 2 57 C 2 57.601562 2.398438 58 3 58 L 59 58 C 59.601562 58 60 57.601562 60 57 C 60 56.398438 59.601562 56 59 56 L 56 56 L 56 34.800781 Z M 22 56 L 8 56 L 8 48 L 24 48 L 24 56 Z M 26 56 L 26 38 L 36 38 L 36 56 Z M 54 56 L 38 56 L 38 48 L 54 48 Z M 54 38 L 54 46 L 38 46 L 38 38 C 38 36.898438 37.101562 36 36 36 L 26 36 C 24.898438 36 24 36.898438 24 38 L 24 46 L 8 46 L 8 33.199219 L 31 14.300781 L 54 33.199219 Z M 32.300781 12.800781 C 31.601562 12.199219 30.5 12.199219 29.800781 12.800781 L 4 33.898438 L 4 31 C 4 30.699219 4.101562 30.398438 4.398438 30.199219 L 30.398438 8.800781 C 30.800781 8.5 31.300781 8.5 31.699219 8.800781 L 57.699219 30.199219 C 57.898438 30.398438 58.101562 30.699219 58.101562 31 L 58.101562 33.898438 Z M 32.300781 12.800781 "/>
<path style=" stroke:none;fill-rule:nonzero;fill:rgb(55.294118%,42.352941%,62.352941%);fill-opacity:1;" d="M 21 50 C 20.398438 50 20 50.398438 20 51 L 20 53 C 20 53.601562 20.398438 54 21 54 C 21.601562 54 22 53.601562 22 53 L 22 51 C 22 50.398438 21.601562 50 21 50 Z M 41 50 C 40.398438 50 40 50.398438 40 51 L 40 53 C 40 53.601562 40.398438 54 41 54 C 41.601562 54 42 53.601562 42 53 L 42 51 C 42 50.398438 41.601562 50 41 50 Z M 41 50 "/>
</g>
</svg>
